=================================================================================
                                   SPECIAL THANKS
=================================================================================


Hi All,

I have shared 1002 Torrents in TPB.

Thanks to Mr: velvetfog (Super-Mod) & Alia Erenel (Helper) for supporting me through out the time i have been here.

Thanks to all the other Mods, Super-Mods , Administrators, and Helpers for keeping TPB a clean place.

Special thanks to the pirates who have supported by seeding all the torrents.



Greetings-

Cheers to - Noir, Safcuk, LKRG, MnM-RG, Pitic,
RLRG, Blue-Lady, X, Love, IMAGiNE, FLAWL3SS,
Rx, aAF, HDLiTE, MXMG, ViSiON, AbsurditY, 3Li,
CROSSBOW, Black Jesus, KiNGDOM,
ResourceRG, DiAMOND, Wrath, Jaybob, DUBBY,
NiKoN, MC8, MAGNET, VoMiT, IMMERSE,
FRAGMENT, CLASSiFiED, FxM, FXG, PrisM, 
DoNE, LAP, SHiTTy, SUBMERGE, T0XiC,
captinmasr, ALLiANCE, InsayneRG, UNDEAD,
iMBT, AMIABLE, FreaK, ARROW, MisFitZ,
MYSTiC, FQM, LOL, MOMENTUM, SPRiNTER,
RUBY, ELEKTRI4KA, MoH, Stealthmaster



Thanks and Regards,
hiest.

-------------X--------------------------X--------------------------X-------------




Title: Total.Recall.1990.DvdRip.x264.LKRG

Plot:

Based on a Philip K. Dick story, Paul Verhoeven's violent, Oscar-winning sci-fi adventure follows construction worker Douglas Quaid (Arnold Schwarzenegger), who discovers a memory chip in his brain during a virtual-reality trip. He also finds that his past has been invented to conceal a plot of planetary domination. Soon, he's off to Mars to find out who he is and who planted the chip. Sharon Stone co-stars in this mind-bending thriller.

Cast:

Arnold Schwarzenegger: Doug Quaid
Rachel Ticotin: Melina
Sharon Stone: Lori Quaid
Ronny Cox: Cohaagen
Michael Ironside: Richter
Marshall Bell: George/Kuato
Mel Johnson Jr.: Benny
Michael Champion: Helm
Roy Brocksmith: Dr. Edgemar
Ray Baker: McClane
Rosemary Dunsmore: Dr. Lull
David Knell: Ernie
Alexia Robinson: Tiffany
Dean Norris: Tony
Mark Carlton: Bartender
Debbie Lee Carrington: Thumbelina
Lycia Naff: Mary
Robert Costanzo: Harry
Michael LaGuardia: Stevens
Pricilla Allen: Fat Lady
Ken Strausbaugh: Immigration Officer
Marc Alaimo: Everett
Michael Gregory: Rebel Lieutenant


Video:

ID : 1
Format : AVC
Format/Info : Advanced Video Codec
Format profile : Main@L3.0
Format settings, CABAC : Yes
Format settings, ReFrames : 2 frames
Codec ID : avc1
Codec ID/Info : Advanced Video Coding
Duration : 1h 53mn
Bit rate mode : Variable
Bit rate : 954 Kbps
Width : 720 pixels
Height : 472 pixels
Display aspect ratio : 16:9
Frame rate mode : Variable
Frame rate : 23.976 fps
Minimum frame rate : 14.985 fps
Maximum frame rate : 29.970 fps
Color space : YUV
Chroma subsampling : 4:2:0
Bit depth : 8 bits
Scan type : Progressive
Bits/(Pixel*Frame) : 0.117
Stream size : 767 MiB (85%)
Writing library : x264 core 79

Audio:

ID : 2
Format : AAC
Format/Info : Advanced Audio Codec
Format version : Version 4
Format profile : LC
Codec ID : 40
Duration : 1h 53mn
Bit rate mode : Variable
Bit rate : 160 Kbps
Maximum bit rate : 213 Kbps
Channel(s) : 2 channels
Channel positions : Front: L R
Sampling rate : 48.0 KHz
Compression mode : Lossy
Stream size : 130 MiB (14%)
Encoded date : UTC 2010-12-01 21:50:19
Tagged date : UTC 2010-12-02 00:01:33







================================== 
http://thepiratebay.org/user/hiest
==================================






Screen Shots:

ht*tp*://lookpic*.*com/c1/i2/980/FDem7Q4z*.*png

ht*tp*:*//lookpic*.*com/c1*/i2/*2588/cXA*hLjR*.*png

ht*tp*:*//lookpic*.*com/c1/*i2/3996*/2EdvDNkE*.*png

ht*tp*:*//lookpic*.*com/c1/i2*/2632*/pSexqpPE*.*png

ht*tp*:*//lookpic*.*com/c1*/i2/*2622/MNhd6fei*.*png



